<?xml version="1.0" encoding="UTF-8"?>
<svg id="Camada_1" xmlns="http://www.w3.org/2000/svg" version="1.1" viewBox="0 0 350 350">
  <!-- Generator: Adobe Illustrator 30.6.0, SVG Export Plug-In . SVG Version: 2.1.4 Build 109)  -->
  <defs>
    <style>
      .st0 {
        fill: #fff;
      }

      .st1 {
        fill: #010101;
      }
    </style>
  </defs>
  <rect class="st1" width="350" height="350" rx="19.39" ry="19.39"/>
  <g>
    <path class="st0" d="M51.32,152.87c3.1,0,6-.68,8.71-2.03s4.88-3.51,6.53-6.48l13.95,9.2c-1.39,2.37-3.13,4.5-5.24,6.38-2.11,1.88-4.45,3.48-7.03,4.8-2.57,1.32-5.31,2.32-8.21,3.02-2.9.69-5.84,1.04-8.81,1.04-4.88,0-9.42-.87-13.61-2.62-4.19-1.75-7.83-4.16-10.93-7.22-3.1-3.07-5.53-6.66-7.27-10.79-1.75-4.12-2.62-8.56-2.62-13.31s.87-9.19,2.62-13.31c1.75-4.12,4.17-7.72,7.27-10.79,3.1-3.07,6.74-5.47,10.93-7.22,4.19-1.75,8.69-2.62,13.51-2.62,3.03,0,6.02.36,8.95,1.09,2.93.73,5.69,1.75,8.26,3.07,2.57,1.32,4.91,2.92,7.03,4.8,2.11,1.88,3.82,4.01,5.14,6.38l-13.85,9.1c-1.45-2.9-3.61-5.08-6.48-6.53-2.87-1.45-5.82-2.18-8.86-2.18-2.51,0-4.83.45-6.98,1.34-2.15.89-4.01,2.13-5.59,3.71-1.58,1.58-2.84,3.5-3.76,5.74-.92,2.24-1.39,4.72-1.39,7.42s.46,5.16,1.39,7.37c.92,2.21,2.18,4.11,3.76,5.69,1.58,1.58,3.46,2.8,5.64,3.66,2.18.86,4.48,1.29,6.93,1.29Z"/>
    <path class="st0" d="M103.86,102.31h19.3l24.24,65.11h-18.4l-3.86-10.39h-23.25l-3.86,10.39h-18.4l24.24-65.11ZM106.92,143.18h13.16l-6.43-21.47h-.2l-6.53,21.47Z"/>
    <path class="st0" d="M150.76,102.31h18.31l26.02,36.71v-36.71h16.92v65.11h-17.22l-27.11-39.58v39.58h-16.92v-65.11Z"/>
    <path class="st0" d="M273.16,118.14h-18.9v49.28h-16.82v-49.28h-18.9v-15.83h54.62v15.83Z"/>
    <path class="st0" d="M289.68,102.31h19.3l24.24,65.11h-18.4l-3.86-10.39h-23.25l-3.86,10.39h-18.4l24.24-65.11ZM292.75,143.18h13.16l-6.43-21.47h-.2l-6.53,21.47Z"/>
    <g>
      <path class="st0" d="M144.72,243.34c0-1.52.53-2.77,1.58-3.76,1.05-.99,2.28-1.48,3.66-1.48,1.52,0,2.79.49,3.81,1.48s1.53,2.24,1.53,3.76-.51,2.69-1.53,3.71c-1.02,1.02-2.29,1.53-3.81,1.53-1.39,0-2.61-.51-3.66-1.53-1.06-1.02-1.58-2.26-1.58-3.71Z"/>
      <path class="st0" d="M172.13,221.67v26.02h-5.94v-65.11h23.25c3.1,0,5.92.48,8.46,1.43,2.54.96,4.75,2.29,6.63,4.01,1.88,1.72,3.33,3.78,4.35,6.18,1.02,2.41,1.53,5.1,1.53,8.06s-.51,5.64-1.53,8.01c-1.02,2.38-2.47,4.4-4.35,6.09-1.88,1.68-4.09,2.99-6.63,3.91-2.54.92-5.36,1.39-8.46,1.39h-17.32ZM172.13,188.32v27.71h17.32c4.75,0,8.44-1.3,11.08-3.91,2.64-2.61,3.96-5.89,3.96-9.85s-1.32-7.35-3.96-9.99c-2.64-2.64-6.33-3.96-11.08-3.96h-17.32Z"/>
      <path class="st0" d="M216.36,247.69v-65.11h26.02c3.03,0,5.8.45,8.31,1.34,2.51.89,4.67,2.14,6.48,3.76,1.81,1.62,3.22,3.61,4.21,5.99.99,2.38,1.48,5.05,1.48,8.02,0,4.88-1.4,8.87-4.21,11.97-2.8,3.1-6.48,5.15-11.03,6.13l17.12,27.9h-6.73l-16.72-27.21h-19v27.21h-5.94ZM222.3,188.32v26.42h19.79c4.81,0,8.48-1.19,10.98-3.56,2.51-2.38,3.76-5.54,3.76-9.5s-1.27-7.26-3.81-9.7c-2.54-2.44-6.18-3.66-10.93-3.66h-19.79Z"/>
      <path class="st0" d="M266.13,215.33c0-4.68.89-9.1,2.67-13.26,1.78-4.16,4.19-7.77,7.22-10.83,3.03-3.07,6.58-5.49,10.64-7.27,4.06-1.78,8.39-2.67,13.01-2.67s8.95.89,13.01,2.67c4.06,1.78,7.6,4.21,10.64,7.27,3.03,3.07,5.44,6.68,7.22,10.83,1.78,4.16,2.67,8.58,2.67,13.26s-.89,8.97-2.67,13.06c-1.78,4.09-4.19,7.67-7.22,10.74-3.04,3.07-6.58,5.49-10.64,7.27s-8.4,2.67-13.01,2.67-8.96-.89-13.01-2.67c-4.06-1.78-7.6-4.21-10.64-7.27-3.03-3.07-5.44-6.65-7.22-10.74-1.78-4.09-2.67-8.44-2.67-13.06ZM272.07,215.33c0,3.83.73,7.42,2.18,10.79,1.45,3.36,3.43,6.3,5.94,8.81,2.51,2.51,5.44,4.5,8.81,5.99,3.36,1.48,6.93,2.23,10.69,2.23s7.32-.74,10.69-2.23c3.36-1.48,6.28-3.48,8.76-5.99,2.47-2.51,4.44-5.44,5.89-8.81,1.45-3.36,2.18-6.96,2.18-10.79s-.73-7.54-2.18-10.93c-1.45-3.4-3.41-6.37-5.89-8.91-2.47-2.54-5.39-4.55-8.76-6.04-3.36-1.48-6.93-2.23-10.69-2.23s-7.32.74-10.69,2.23-6.3,3.5-8.81,6.04c-2.51,2.54-4.49,5.51-5.94,8.91-1.45,3.4-2.18,7.04-2.18,10.93Z"/>
    </g>
  </g>
</svg>