<?xml version="1.0" encoding="UTF-8"?>
<svg id="Camada_1" xmlns="http://www.w3.org/2000/svg" version="1.1" viewBox="0 0 382 382">
  <!-- Generator: Adobe Illustrator 30.6.0, SVG Export Plug-In . SVG Version: 2.1.4 Build 109)  -->
  <defs>
    <style>
      .st0 {
        fill: #fff;
      }

      .st1 {
        fill: #010101;
      }
    </style>
  </defs>
  <rect class="st1" width="382" height="382" rx="22" ry="22"/>
  <g>
    <path class="st0" d="M56.01,166.85c3.38,0,6.55-.74,9.5-2.21s5.33-3.83,7.13-7.07l15.23,10.04c-1.51,2.59-3.42,4.91-5.72,6.97-2.3,2.05-4.86,3.8-7.67,5.24-2.81,1.44-5.8,2.54-8.96,3.29-3.17.76-6.37,1.13-9.61,1.13-5.33,0-10.28-.95-14.85-2.86-4.57-1.91-8.55-4.54-11.93-7.88-3.38-3.35-6.03-7.27-7.94-11.77-1.91-4.5-2.86-9.34-2.86-14.53s.95-10.03,2.86-14.53c1.91-4.5,4.55-8.42,7.94-11.77,3.38-3.35,7.36-5.97,11.93-7.88,4.57-1.91,9.49-2.86,14.74-2.86,3.31,0,6.57.4,9.77,1.19,3.2.79,6.21,1.91,9.02,3.35,2.81,1.44,5.36,3.19,7.67,5.24,2.3,2.05,4.17,4.37,5.61,6.97l-15.12,9.94c-1.58-3.17-3.94-5.54-7.07-7.13-3.13-1.58-6.35-2.38-9.67-2.38-2.74,0-5.27.49-7.61,1.46-2.34.97-4.37,2.32-6.1,4.05-1.73,1.73-3.1,3.82-4.1,6.26-1.01,2.45-1.51,5.15-1.51,8.1s.5,5.63,1.51,8.05c1.01,2.41,2.38,4.48,4.1,6.21,1.73,1.73,3.78,3.06,6.15,4,2.38.94,4.89,1.4,7.56,1.4Z"/>
    <path class="st0" d="M113.35,111.66h21.06l26.46,71.06h-20.09l-4.21-11.34h-25.38l-4.21,11.34h-20.09l26.46-71.06ZM116.7,156.27h14.36l-7.02-23.43h-.22l-7.13,23.43Z"/>
    <path class="st0" d="M164.54,111.66h19.98l28.4,40.07v-40.07h18.47v71.06h-18.79l-29.59-43.2v43.2h-18.47v-71.06Z"/>
    <path class="st0" d="M298.13,128.94h-20.63v53.78h-18.36v-53.78h-20.63v-17.28h59.61v17.28Z"/>
    <path class="st0" d="M316.16,111.66h21.06l26.46,71.06h-20.09l-4.21-11.34h-25.38l-4.21,11.34h-20.09l26.46-71.06ZM319.51,156.27h14.36l-7.02-23.43h-.22l-7.13,23.43Z"/>
    <g>
      <path class="st0" d="M157.95,265.59c0-1.66.58-3.02,1.73-4.1,1.15-1.08,2.48-1.62,4-1.62,1.66,0,3.04.54,4.16,1.62,1.55,1.5,2.02,3.55,1.42,6.16-1.27,2.44-3.13,3.66-5.58,3.66-1.51,0-2.85-.56-4-1.67-1.15-1.12-1.73-2.47-1.73-4.05Z"/>
      <path class="st0" d="M187.87,241.93v28.4h-6.48v-71.06h25.38c3.38,0,6.46.52,9.23,1.57,2.77,1.04,5.18,2.5,7.24,4.37,2.05,1.87,3.64,4.12,4.75,6.75,1.12,2.63,1.67,5.56,1.67,8.8s-.56,6.16-1.67,8.75c-1.12,2.59-2.7,4.81-4.75,6.64-2.05,1.84-4.46,3.26-7.24,4.27-2.77,1.01-5.85,1.51-9.23,1.51h-18.9ZM187.87,205.54v30.24h18.9c5.18,0,9.21-1.42,12.1-4.27,2.88-2.84,4.32-6.43,4.32-10.75s-1.44-8.03-4.32-10.91c-2.88-2.88-6.91-4.32-12.1-4.32h-18.9Z"/>
      <path class="st0" d="M236.14,270.34v-71.06h28.4c3.31,0,6.33.49,9.07,1.46,2.74.97,5.09,2.34,7.07,4.1,1.98,1.76,3.51,3.94,4.59,6.53,1.08,2.59,1.62,5.51,1.62,8.75,0,5.33-1.53,9.68-4.59,13.07-3.06,3.38-7.07,5.62-12.04,6.7l18.68,30.45h-7.34l-18.25-29.7h-20.74v29.7h-6.48ZM242.62,205.54v28.83h21.6c5.25,0,9.25-1.3,11.99-3.89,2.74-2.59,4.1-6.05,4.1-10.37s-1.39-7.92-4.16-10.58c-2.77-2.66-6.75-4-11.93-4h-21.6Z"/>
      <path class="st0" d="M290.46,235.02c0-5.11.97-9.94,2.92-14.47,1.94-4.54,4.57-8.48,7.88-11.83,3.31-3.35,7.18-5.99,11.61-7.94,4.43-1.94,9.16-2.92,14.2-2.92s9.77.97,14.2,2.92c4.43,1.94,8.3,4.59,11.61,7.94,3.31,3.35,5.94,7.29,7.88,11.83,1.94,4.54,2.92,9.36,2.92,14.47s-.97,9.79-2.92,14.26c-1.94,4.46-4.57,8.37-7.88,11.72-3.31,3.35-7.18,5.99-11.61,7.94-4.43,1.94-9.16,2.92-14.2,2.92s-9.77-.97-14.2-2.92c-4.43-1.94-8.3-4.59-11.61-7.94-3.31-3.35-5.94-7.25-7.88-11.72-1.94-4.46-2.92-9.21-2.92-14.26ZM296.94,235.02c0,4.18.79,8.1,2.38,11.77,1.58,3.67,3.74,6.88,6.48,9.61,2.74,2.74,5.94,4.91,9.61,6.53s7.56,2.43,11.66,2.43,7.99-.81,11.66-2.43,6.86-3.8,9.56-6.53c2.7-2.74,4.84-5.94,6.42-9.61,1.58-3.67,2.38-7.59,2.38-11.77s-.79-8.22-2.38-11.93c-1.58-3.71-3.73-6.95-6.42-9.72-2.7-2.77-5.89-4.97-9.56-6.59-3.67-1.62-7.56-2.43-11.66-2.43s-7.99.81-11.66,2.43c-3.67,1.62-6.88,3.82-9.61,6.59-2.74,2.77-4.9,6.01-6.48,9.72-1.58,3.71-2.38,7.69-2.38,11.93Z"/>
    </g>
  </g>
</svg>