<?xml version="1.0" encoding="UTF-8"?>
<svg id="Camada_1" xmlns="http://www.w3.org/2000/svg" version="1.1" viewBox="0 0 42 42">
  <!-- Generator: Adobe Illustrator 30.6.0, SVG Export Plug-In . SVG Version: 2.1.4 Build 109)  -->
  <defs>
    <style>
      .st0 {
        fill: #fff;
      }
    </style>
  </defs>
  <rect width="42" height="42"/>
  <g>
    <path class="st0" d="M6.16,18.34c.37,0,.72-.08,1.04-.24s.59-.42.78-.78l1.67,1.1c-.17.28-.38.54-.63.77-.25.23-.53.42-.84.58-.31.16-.64.28-.99.36-.35.08-.7.12-1.06.12-.59,0-1.13-.1-1.63-.31-.5-.21-.94-.5-1.31-.87-.37-.37-.66-.8-.87-1.29-.21-.49-.31-1.03-.31-1.6s.1-1.1.31-1.6c.21-.49.5-.93.87-1.29.37-.37.81-.66,1.31-.87.5-.21,1.04-.31,1.62-.31.36,0,.72.04,1.07.13.35.09.68.21.99.37.31.16.59.35.84.58.25.23.46.48.62.77l-1.66,1.09c-.17-.35-.43-.61-.78-.78-.34-.17-.7-.26-1.06-.26-.3,0-.58.05-.84.16-.26.11-.48.26-.67.45-.19.19-.34.42-.45.69-.11.27-.17.57-.17.89s.06.62.17.88c.11.27.26.49.45.68.19.19.42.34.68.44.26.1.54.15.83.15Z"/>
    <path class="st0" d="M12.46,12.28h2.32l2.91,7.81h-2.21l-.46-1.25h-2.79l-.46,1.25h-2.21l2.91-7.81ZM12.83,17.18h1.58l-.77-2.58h-.02l-.78,2.58Z"/>
    <path class="st0" d="M18.09,12.28h2.2l3.12,4.41v-4.41h2.03v7.81h-2.07l-3.25-4.75v4.75h-2.03v-7.81Z"/>
    <path class="st0" d="M32.78,14.18h-2.27v5.91h-2.02v-5.91h-2.27v-1.9h6.55v1.9Z"/>
    <path class="st0" d="M34.76,12.28h2.32l2.91,7.81h-2.21l-.46-1.25h-2.79l-.46,1.25h-2.21l2.91-7.81ZM35.13,17.18h1.58l-.77-2.58h-.02l-.78,2.58Z"/>
    <g>
      <path class="st0" d="M17.37,29.2c0-.18.06-.33.19-.45.13-.12.27-.18.44-.18.18,0,.33.06.46.18.17.16.22.39.16.68-.14.27-.34.4-.61.4-.17,0-.31-.06-.44-.18-.13-.12-.19-.27-.19-.45Z"/>
      <path class="st0" d="M20.66,26.6v3.12h-.71v-7.81h2.79c.37,0,.71.06,1.02.17.3.11.57.28.8.48.23.21.4.45.52.74.12.29.18.61.18.97s-.06.68-.18.96c-.12.29-.3.53-.52.73-.23.2-.49.36-.8.47-.3.11-.64.17-1.02.17h-2.08ZM20.66,22.6v3.32h2.08c.57,0,1.01-.16,1.33-.47.32-.31.47-.71.47-1.18s-.16-.88-.47-1.2c-.32-.32-.76-.47-1.33-.47h-2.08Z"/>
      <path class="st0" d="M25.96,29.72v-7.81h3.12c.36,0,.7.05,1,.16.3.11.56.26.78.45.22.19.39.43.5.72.12.29.18.61.18.96,0,.59-.17,1.06-.5,1.44-.34.37-.78.62-1.32.74l2.05,3.35h-.81l-2.01-3.27h-2.28v3.27h-.71ZM26.68,22.6v3.17h2.37c.58,0,1.02-.14,1.32-.43.3-.29.45-.66.45-1.14s-.15-.87-.46-1.16c-.3-.29-.74-.44-1.31-.44h-2.37Z"/>
      <path class="st0" d="M31.94,25.84c0-.56.11-1.09.32-1.59.21-.5.5-.93.87-1.3.36-.37.79-.66,1.28-.87.49-.21,1.01-.32,1.56-.32s1.07.11,1.56.32c.49.21.91.5,1.28.87.36.37.65.8.87,1.3.21.5.32,1.03.32,1.59s-.11,1.08-.32,1.57c-.21.49-.5.92-.87,1.29-.36.37-.79.66-1.28.87s-1.01.32-1.56.32-1.07-.11-1.56-.32c-.49-.21-.91-.5-1.28-.87-.36-.37-.65-.8-.87-1.29-.21-.49-.32-1.01-.32-1.57ZM32.65,25.84c0,.46.09.89.26,1.29.17.4.41.76.71,1.06.3.3.65.54,1.06.72s.83.27,1.28.27.88-.09,1.28-.27.75-.42,1.05-.72c.3-.3.53-.65.71-1.06.17-.4.26-.84.26-1.29s-.09-.9-.26-1.31c-.17-.41-.41-.76-.71-1.07-.3-.3-.65-.55-1.05-.72s-.83-.27-1.28-.27-.88.09-1.28.27-.76.42-1.06.72c-.3.3-.54.66-.71,1.07-.17.41-.26.85-.26,1.31Z"/>
    </g>
  </g>
</svg>